<?xml version="1.0" encoding="UTF-8"?>
<svg version="1.1" xmlns="http://www.w3.org/2000/svg" width="32" height="32">
<path d="M0 0 C5.34956981 1.50456651 10.12551619 4.19520589 13 9 C14.02209819 14.98297969 13.35218253 20.96887412 13 27 C5.08 27 -2.84 27 -11 27 C-11.061875 24.091875 -11.12375 21.18375 -11.1875 18.1875 C-11.21481201 17.27508545 -11.24212402 16.3626709 -11.27026367 15.42260742 C-11.27775635 14.69920166 -11.28524902 13.9757959 -11.29296875 13.23046875 C-11.3086792 12.49207764 -11.32438965 11.75368652 -11.34057617 10.99291992 C-10.90043807 8.41740211 -10.04020993 7.586631 -8 6 C-7.01 5.67 -6.02 5.34 -5 5 C-3.29413425 3.37347684 -1.6222454 1.70993434 0 0 Z " fill="#FCA69F" transform="translate(15,2)"/>
<path d="M0 0 C2 0 2 0 3.5078125 1.4609375 C4.30832031 2.40839844 4.30832031 2.40839844 5.125 3.375 C5.66382813 4.00148438 6.20265625 4.62796875 6.7578125 5.2734375 C8 7 8 7 8 9 C5.69 9.33 3.38 9.66 1 10 C1.33 12.31 1.66 14.62 2 17 C2.33 15.35 2.66 13.7 3 12 C4.98 12 6.96 12 9 12 C9 14.64 9 17.28 9 20 C4.71 20 0.42 20 -4 20 C-4.08097324 17.72975032 -4.13917704 15.45867925 -4.1875 13.1875 C-4.22230469 11.92292969 -4.25710937 10.65835937 -4.29296875 9.35546875 C-4 6 -4 6 -2.55078125 4.23828125 C-2.03902344 3.82964844 -1.52726563 3.42101562 -1 3 C-0.67 2.01 -0.34 1.02 0 0 Z " fill="#FEECEB" transform="translate(10,7)"/>
<path d="M0 0 C-1.875 3.875 -1.875 3.875 -3 5 C-3.23527773 7.34987262 -3.41386417 9.70556039 -3.5625 12.0625 C-3.64628906 13.35285156 -3.73007813 14.64320312 -3.81640625 15.97265625 C-3.87699219 16.97167969 -3.93757812 17.97070312 -4 19 C0.29 19 4.58 19 9 19 C9 16.36 9 13.72 9 11 C7.02 11 5.04 11 3 11 C3 12.98 3 14.96 3 17 C2.34 16.67 1.68 16.34 1 16 C1 13.69 1 11.38 1 9 C2.47906892 8.97310784 3.95827483 8.95365379 5.4375 8.9375 C6.26121094 8.92589844 7.08492187 8.91429687 7.93359375 8.90234375 C10 9 10 9 11 10 C11.14310287 13.6691577 11.04221662 17.32715441 11 21 C5.39 21 -0.22 21 -6 21 C-6.08086376 18.06195004 -6.1404283 15.12611925 -6.1875 12.1875 C-6.21263672 11.35412109 -6.23777344 10.52074219 -6.26367188 9.66210938 C-6.27333984 8.85966797 -6.28300781 8.05722656 -6.29296875 7.23046875 C-6.3086792 6.49207764 -6.32438965 5.75368652 -6.34057617 4.99291992 C-5.67140774 1.07720527 -3.81720584 0 0 0 Z " fill="#E23B31" transform="translate(10,8)"/>
<path d="M0 0 C2.1875 0.4375 2.1875 0.4375 5 2 C6.04027344 2.52787109 6.04027344 2.52787109 7.1015625 3.06640625 C9.86539567 4.85850302 11.29361974 6.14772934 13 9 C14.01361997 14.93335136 13.45464393 21.03279841 13 27 C11.02 27 9.04 27 7 27 C7 26.34 7 25.68 7 25 C8.32 25 9.64 25 11 25 C11.34854726 16.34725588 11.34854726 16.34725588 8.36328125 8.4765625 C5.01977734 5.35595885 3.15335338 3.9794044 -1.5 4.0625 C-2.325 4.371875 -3.15 4.68125 -4 5 C-3 2 -3 2 0 0 Z " fill="#E03025" transform="translate(15,2)"/>
<path d="M0 0 C2 0 2 0 3.5078125 1.4609375 C4.04148437 2.09257812 4.57515625 2.72421875 5.125 3.375 C5.66382813 4.00148438 6.20265625 4.62796875 6.7578125 5.2734375 C8 7 8 7 8 9 C5.3125 9.8125 5.3125 9.8125 2 10 C-0.875 7.5625 -0.875 7.5625 -3 5 C-1.625 2.5 -1.625 2.5 0 0 Z " fill="#FEB8B2" transform="translate(10,7)"/>
<path d="M0 0 C2.99220268 1.36370299 5.29026529 2.94908083 7.75 5.125 C8.67039062 5.93324219 8.67039062 5.93324219 9.609375 6.7578125 C10.06828125 7.16773438 10.5271875 7.57765625 11 8 C10.67 9.32 10.34 10.64 10 12 C6.33333333 8.33333333 2.66666667 4.66666667 -1 1 C-0.67 0.67 -0.34 0.34 0 0 Z " fill="#FC8277" transform="translate(15,5)"/>
<path d="M0 0 C2.5 1.6875 2.5 1.6875 5 4 C5.3125 6.75 5.3125 6.75 5 9 C3.35 9.33 1.7 9.66 0 10 C0 6.7 0 3.4 0 0 Z " fill="#FEC0BB" transform="translate(21,18)"/>
<path d="M0 0 C4.62566355 0.46831762 6.62526059 2.13397657 9.8125 5.4375 C10.60269531 6.24058594 11.39289062 7.04367188 12.20703125 7.87109375 C14 10 14 10 14 12 C10.60443872 10.53823371 8.43515037 8.64776008 5.875 6 C5.19179688 5.29875 4.50859375 4.5975 3.8046875 3.875 C3.20914062 3.25625 2.61359375 2.6375 2 2 C1.34 1.34 0.68 0.68 0 0 Z " fill="#FD9B92" transform="translate(12,7)"/>
<path d="M0 0 C1.98 0 3.96 0 6 0 C6 2.64 6 5.28 6 8 C1.71 8 -2.58 8 -7 8 C-7 7.67 -7 7.34 -7 7 C-3.04 7 0.92 7 5 7 C3.66436384 2.05536365 3.66436384 2.05536365 1 1 C0.67 2.32 0.34 3.64 0 5 C0 3.35 0 1.7 0 0 Z " fill="#F6B0AB" transform="translate(13,19)"/>
<path d="M0 0 C3.27642756 0.25866533 4.60820723 0.55416685 6.8125 3.0625 C7.204375 3.701875 7.59625 4.34125 8 5 C6.3125 5.8125 6.3125 5.8125 4 6 C1.25 3.5625 1.25 3.5625 -1 1 C-0.67 0.67 -0.34 0.34 0 0 Z " fill="#FECDC8" transform="translate(8,11)"/>
<path d="M0 0 C1.32 0.66 2.64 1.32 4 2 C4 3.32 4 4.64 4 6 C2.35 5.67 0.7 5.34 -1 5 C-0.67 3.35 -0.34 1.7 0 0 Z " fill="#FEE2E0" transform="translate(14,20)"/>
</svg>
